<?xml version="1.0" standalone="no"?>
<!DOCTYPE svg PUBLIC "-//W3C//DTD SVG 20010904//EN"
 "http://www.w3.org/TR/2001/REC-SVG-20010904/DTD/svg10.dtd">
<svg version="1.0" xmlns="http://www.w3.org/2000/svg"
 width="1269.000000pt" height="1269.000000pt" viewBox="0 0 1269.000000 1269.000000"
 preserveAspectRatio="xMidYMid meet">
<metadata>
Created by potrace 1.14, written by Peter Selinger 2001-2017
</metadata>
<g transform="translate(0.000000,1269.000000) scale(0.100000,-0.100000)"
fill="#000000" stroke="none">
<path d="M6055 12679 c-732 -34 -1477 -199 -2140 -476 -182 -76 -505 -234
-499 -245 3 -4 117 -8 255 -8 l249 0 38 38 c72 72 173 76 249 9 43 -37 63 -81
63 -136 0 -175 -221 -248 -330 -108 l-21 27 -248 0 -247 0 -22 -30 c-46 -62
-142 -87 -217 -55 -20 8 -50 31 -69 51 l-34 37 -109 -68 c-893 -565 -1620
-1325 -2144 -2244 -75 -131 -86 -157 -78 -178 20 -54 2 -141 -39 -186 -9 -11
-38 -30 -63 -43 -46 -23 -47 -25 -119 -191 -40 -92 -99 -238 -131 -323 l-57
-155 361 -3 360 -2 33 35 c80 88 208 83 280 -11 26 -33 29 -46 29 -109 0 -63
-3 -76 -29 -109 -70 -92 -194 -99 -275 -15 l-39 39 -388 0 -389 0 -32 -114
-33 -115 33 -36 32 -36 695 7 695 6 35 34 c36 34 96 64 127 64 103 0 189 -89
185 -190 -2 -35 5 -41 216 -216 l217 -181 62 5 c54 4 68 1 107 -22 62 -36 91
-86 90 -156 0 -106 -63 -172 -168 -178 -75 -4 -118 16 -160 76 -21 30 -29 54
-31 94 l-3 53 -217 181 -218 181 -38 -10 c-57 -14 -120 6 -166 54 l-38 39
-698 0 -698 0 -38 -40 c-21 -22 -51 -43 -68 -46 l-31 -6 -25 -132 c-223 -1150
-114 -2358 313 -3478 l21 -58 380 0 380 0 31 36 c42 48 77 64 139 64 104 0
179 -75 179 -181 l0 -54 143 -142 142 -141 52 0 c59 0 119 -28 152 -73 l22
-29 389 0 389 0 22 29 c32 43 93 73 148 73 134 0 222 -142 162 -260 -23 -46
-46 -67 -94 -87 -71 -30 -158 -8 -209 54 l-27 31 -393 0 -394 0 -23 -31 c-13
-17 -42 -39 -64 -50 -129 -58 -264 35 -255 177 l3 54 -139 139 -139 140 -48
-6 c-58 -7 -128 23 -160 68 l-20 29 -349 0 -349 0 11 -32 c18 -52 263 -536
320 -633 l54 -90 272 -3 272 -2 33 36 c56 65 134 81 213 45 132 -60 138 -244
10 -322 -69 -42 -175 -19 -236 53 l-25 29 -217 -3 -218 -3 82 -120 c374 -551
821 -1029 1351 -1446 l139 -109 138 0 139 0 20 29 c45 63 155 83 228 42 62
-36 88 -82 88 -161 0 -57 -4 -72 -28 -103 -33 -44 -74 -67 -135 -76 l-45 -6
133 -79 c122 -73 466 -255 482 -256 4 0 3 12 -2 26 -21 55 -4 140 38 188 23
26 90 56 128 56 28 0 43 19 257 334 148 218 225 340 221 350 -6 14 -75 16
-655 16 l-650 0 -29 -34 c-59 -67 -138 -83 -218 -45 -132 64 -133 252 -1 319
74 38 160 21 216 -44 l32 -36 646 0 646 0 32 36 c39 46 82 64 147 64 65 0 108
-18 147 -64 l32 -36 527 0 526 0 42 43 c75 78 174 83 253 14 59 -52 76 -116
52 -197 l-12 -38 223 -356 223 -356 36 0 c43 0 91 -27 122 -69 l23 -31 1382 0
1383 0 108 61 c196 112 405 247 636 415 l69 49 -1788 3 -1788 2 -39 -40 c-58
-58 -125 -74 -195 -45 -103 44 -143 147 -98 255 4 10 -74 144 -212 364 l-218
350 -52 11 c-59 14 -95 35 -118 70 l-16 25 -1362 0 -1362 0 -23 -31 c-33 -45
-102 -73 -160 -65 -145 20 -208 185 -113 298 71 84 211 77 282 -14 l21 -28
1350 0 1349 0 43 44 c142 148 365 14 306 -184 l-11 -37 218 -351 c191 -307
222 -351 244 -352 42 -1 105 -35 138 -75 l31 -38 1887 6 1886 5 29 35 c16 19
45 42 66 50 31 13 139 101 227 187 19 18 18 20 -44 90 -53 60 -67 70 -87 66
-41 -11 -114 15 -153 54 l-37 37 -1887 6 -1887 6 -42 -44 c-67 -69 -156 -81
-229 -31 -66 45 -95 118 -77 191 6 22 11 47 12 55 1 8 -97 174 -218 367 l-220
353 -35 0 c-40 0 -99 33 -130 73 l-21 27 -1354 0 -1353 0 -25 -34 c-33 -43
-88 -68 -147 -68 -140 0 -226 157 -147 272 68 100 194 113 279 28 l38 -38
1356 0 1355 0 26 30 c56 67 145 87 218 50 22 -11 41 -20 42 -20 2 0 -19 35
-45 77 -48 76 -50 78 -107 92 -43 10 -68 24 -96 52 l-39 39 -578 0 -578 0 -21
-28 c-43 -58 -154 -82 -220 -48 -58 29 -102 104 -103 171 0 15 -117 99 -479
342 -470 317 -479 323 -511 312 -30 -11 -98 -8 -130 5 -10 4 -128 -74 -329
-217 l-314 -223 -4 -44 c-8 -80 -58 -140 -135 -161 -128 -34 -250 88 -217 216
14 53 50 98 92 119 39 18 118 21 147 6 15 -8 49 12 197 117 471 335 448 317
451 349 2 28 -13 40 -435 324 -252 170 -446 294 -458 293 -11 -1 -41 -5 -67
-8 -131 -20 -235 123 -180 247 49 111 189 144 279 65 41 -36 63 -81 63 -129 1
-31 8 -38 128 -118 70 -47 269 -181 443 -298 l315 -213 47 13 c59 15 129 -1
170 -40 38 -36 48 -57 56 -113 l6 -48 465 -313 c256 -173 471 -318 478 -322 7
-4 35 -3 61 4 68 16 125 -1 173 -51 l37 -39 576 0 576 0 30 34 c134 153 367
14 308 -183 -11 -37 -11 -37 208 -386 209 -334 220 -350 253 -356 56 -10 85
-25 121 -63 l33 -36 1889 0 1888 0 32 36 c78 90 210 84 284 -13 25 -32 28 -45
28 -110 l1 -73 169 -191 168 -191 34 39 c18 21 58 69 89 106 l57 68 -20 22
c-11 12 -155 176 -321 363 l-301 342 -59 4 c-65 4 -121 34 -143 75 l-12 23
-1892 0 -1891 0 -22 -30 c-51 -68 -163 -91 -234 -47 -85 52 -113 143 -73 239
4 11 -61 124 -216 372 -212 339 -224 356 -253 356 -43 0 -113 37 -133 71 l-17
29 -601 0 -600 0 -27 -33 c-50 -63 -130 -83 -205 -52 -69 29 -103 77 -113 157
l-5 46 -1425 1054 -1425 1054 -81 0 c-70 -1 -85 2 -117 24 -20 13 -46 42 -58
63 -44 80 -9 201 70 242 123 63 267 -23 270 -162 1 -28 13 -40 129 -125 70
-52 716 -529 1435 -1061 1115 -825 1310 -966 1327 -957 52 28 160 -4 201 -59
l23 -31 601 0 602 0 13 26 c32 60 142 92 217 63 87 -33 135 -143 101 -235 -11
-32 -8 -38 211 -388 213 -340 224 -356 253 -356 43 0 95 -28 126 -67 l27 -33
1890 0 1890 0 17 29 c34 61 158 92 227 57 71 -37 109 -114 98 -197 l-5 -39
275 -312 c152 -172 293 -332 314 -355 l39 -42 86 116 c83 110 86 118 73 139
-8 13 -214 251 -459 528 l-445 505 -48 0 c-63 1 -105 20 -144 65 l-32 36
-1890 0 -1890 0 -20 -29 c-12 -16 -42 -39 -67 -51 -121 -59 -257 28 -257 164
0 29 6 62 12 74 11 20 -9 56 -210 377 -209 335 -223 355 -251 355 -44 0 -90
23 -125 64 l-32 36 -599 0 -598 0 -23 -31 c-27 -37 -93 -69 -141 -69 -41 0
-108 29 -132 56 -25 29 -48 89 -48 127 0 33 -23 51 -1432 1093 -788 582 -1440
1058 -1448 1056 -8 -1 -29 -5 -47 -8 -50 -10 -100 4 -140 39 -102 89 -81 242
42 298 114 53 233 -17 252 -148 l8 -52 1427 -1055 1427 -1055 68 6 c80 7 112
-6 161 -61 l31 -36 592 0 591 0 42 43 c30 31 56 47 89 55 140 36 263 -99 217
-238 l-13 -38 219 -350 219 -350 40 -6 c51 -8 97 -36 126 -75 l23 -31 1887 0
1887 0 27 36 c79 103 234 92 301 -22 22 -37 25 -54 22 -104 l-3 -61 449 -509
450 -510 40 63 c22 34 76 123 122 197 l82 135 -37 41 c-20 22 -317 347 -660
722 -622 680 -623 680 -657 675 -47 -8 -116 21 -154 63 l-30 35 -763 9 c-419
5 -1258 14 -1864 21 l-1102 11 -27 -31 c-37 -44 -78 -63 -135 -63 -62 1 -113
25 -147 70 -23 31 -27 45 -27 106 0 39 3 78 8 86 5 11 -51 107 -182 315 l-189
300 -47 7 c-54 8 -86 26 -117 68 l-22 30 -700 0 -701 0 -29 -36 c-48 -60 -135
-81 -209 -50 -45 18 -95 78 -102 123 -4 21 -8 43 -10 48 -1 6 -119 77 -262
158 -258 147 -260 147 -289 132 -69 -36 -175 -3 -222 68 -58 87 -23 215 71
258 73 33 146 22 200 -29 37 -35 57 -74 57 -111 0 -28 12 -36 264 -180 l263
-151 36 15 c72 30 164 6 208 -54 l23 -31 701 0 701 0 22 30 c47 62 148 88 214
54 22 -12 28 -12 22 -2 -63 104 -75 118 -105 118 -41 0 -104 34 -131 70 l-22
30 -701 0 -701 0 -22 -30 c-55 -74 -174 -92 -246 -36 -40 30 -62 67 -74 123
-8 37 -12 40 -266 186 l-259 147 -43 -16 c-146 -56 -289 96 -226 238 28 65 80
101 152 106 47 3 66 0 97 -18 48 -27 93 -93 93 -136 0 -31 6 -35 264 -182
l265 -151 35 14 c73 31 162 7 208 -55 l22 -30 700 0 701 0 27 33 c46 59 134
83 202 57 14 -5 26 -7 26 -4 0 3 -16 29 -35 59 -28 45 -40 55 -62 55 -42 1
-108 35 -134 69 l-23 31 -701 0 -701 0 -23 -31 c-48 -65 -154 -87 -225 -46
-50 28 -76 63 -91 124 l-12 48 -257 147 -258 148 -50 -17 c-104 -34 -200 21
-230 130 -14 55 -1 110 39 158 76 90 233 75 290 -26 13 -22 23 -54 23 -70 0
-30 10 -36 263 -181 253 -144 264 -149 293 -137 39 16 107 16 147 -1 18 -7 47
-29 64 -50 l32 -36 696 0 696 0 31 36 c42 48 77 64 139 64 65 0 117 -28 153
-83 24 -37 27 -49 23 -102 -2 -33 -7 -67 -11 -75 -4 -10 62 -123 183 -315 188
-299 189 -300 227 -306 52 -7 83 -24 119 -65 l31 -35 959 -10 c528 -5 1365
-13 1860 -19 l900 -9 25 29 c40 46 89 70 143 70 113 0 193 -87 185 -202 l-3
-49 780 -853 c757 -827 780 -852 791 -827 32 75 140 389 174 509 22 75 43 146
47 157 4 13 -3 9 -22 -13 -80 -96 -217 -94 -291 4 -57 74 -39 201 36 254 l30
21 0 385 0 384 -39 36 c-46 41 -64 85 -60 149 3 45 2 47 -76 125 -78 78 -79
79 -129 79 -88 -1 -143 32 -177 106 -10 22 -19 56 -19 75 0 69 52 146 113 169
39 15 111 14 150 -3 66 -27 114 -113 104 -186 -5 -36 -2 -41 77 -118 l81 -80
55 0 c84 1 142 -37 175 -114 28 -68 11 -139 -45 -196 l-37 -37 -6 -383 -6
-382 44 -45 c33 -33 46 -55 51 -85 4 -23 10 -38 14 -33 5 4 22 69 39 143 293
1298 171 2665 -346 3880 -70 164 -287 606 -318 646 -12 17 -14 -17 -15 -254
l0 -273 34 -29 c81 -72 89 -187 18 -264 -80 -85 -227 -72 -286 27 l-22 36 -19
-35 c-26 -49 -89 -84 -151 -84 -61 0 -108 24 -147 72 -59 74 -43 193 33 250
l30 22 0 586 0 586 -31 23 c-17 13 -40 44 -51 69 -19 42 -20 65 -6 143 4 19
-162 215 -327 387 -130 136 -148 144 -192 92 -37 -44 -78 -62 -143 -62 l-57 0
-99 -99 c-98 -98 -99 -100 -99 -148 l0 -48 50 0 c171 0 244 -205 115 -320
l-30 -26 0 -502 0 -503 39 -39 c86 -86 76 -202 -24 -278 -108 -83 -269 -6
-283 135 -5 59 23 125 68 158 l30 23 0 502 0 503 -29 22 c-36 27 -71 97 -71
145 l0 37 -45 0 c-26 0 -63 9 -85 20 -38 20 -80 67 -80 91 0 7 -13 -7 -28 -32
-16 -24 -41 -50 -55 -58 l-27 -14 40 -35 c52 -44 70 -80 70 -137 0 -108 -76
-185 -181 -185 -55 0 -99 20 -136 64 l-32 36 -350 0 -349 0 -39 -40 -40 -39
30 -28 c79 -75 77 -197 -7 -270 l-36 -32 0 -189 0 -188 30 -22 c58 -43 90
-156 60 -213 -10 -18 -7 -19 40 -19 31 0 66 -8 90 -20 78 -40 119 -146 86
-224 l-16 -39 165 -286 c157 -274 166 -287 196 -289 44 -3 84 -26 116 -67 l28
-35 355 0 355 0 27 33 c52 66 151 86 226 48 46 -23 67 -46 87 -94 19 -46 19
-88 0 -135 -32 -75 -90 -115 -170 -115 -59 0 -102 20 -138 63 l-26 30 -361 0
-361 0 -25 -29 c-34 -40 -83 -61 -147 -61 -44 0 -61 5 -95 30 -74 53 -103 151
-66 221 l16 31 -164 285 c-158 277 -164 286 -196 289 -44 5 -84 27 -115 64
l-26 30 -866 0 -866 0 -25 -29 c-74 -88 -226 -79 -288 17 -52 78 -42 166 25
233 l39 39 0 175 c0 171 0 175 -23 190 -13 8 -34 34 -47 57 -68 122 16 271
153 271 174 0 254 -206 123 -320 l-36 -32 0 -169 0 -168 45 -47 45 -47 297 0
c275 1 295 2 263 16 -76 33 -110 86 -110 171 0 66 20 108 69 144 l31 23 0 188
0 189 -36 32 c-128 112 -53 319 115 319 61 0 124 -33 153 -80 l20 -33 18 29
c68 111 235 113 305 4 21 -33 35 -41 35 -19 0 15 55 70 88 86 34 18 115 15
157 -5 21 -9 50 -35 65 -56 l28 -38 20 32 c12 18 30 39 42 46 21 13 21 13 -8
37 -101 85 -72 258 51 304 75 29 185 -3 217 -63 l13 -26 357 0 357 0 13 25 c8
14 29 35 47 46 l33 21 -32 22 c-100 67 -112 194 -27 279 l39 39 0 353 0 354
-29 20 c-38 27 -71 96 -71 147 0 55 -11 62 -85 57 -53 -5 -69 -2 -105 18 -87
49 -119 173 -65 253 14 21 23 41 21 44 -2 4 -36 22 -74 41 l-69 34 -31 -23
c-36 -27 -108 -37 -154 -21 -47 17 -81 -10 -89 -71 -9 -57 -30 -99 -69 -131
l-30 -26 0 -350 0 -351 39 -39 c118 -118 40 -311 -124 -311 -164 0 -242 193
-124 311 l39 39 0 351 0 350 -30 26 c-134 112 -60 323 113 323 27 0 57 -5 68
-10 28 -15 79 24 79 61 0 24 -8 30 -90 64 l-89 37 -31 -25 c-57 -48 -155 -49
-216 -2 -37 28 -73 93 -74 130 0 17 -17 26 -102 54 -57 19 -108 36 -114 38 -6
2 -16 -14 -22 -35 -11 -37 -79 -112 -102 -112 -5 0 4 -21 20 -47 17 -27 31
-65 32 -87 4 -52 51 -92 92 -76 63 24 141 8 189 -38 83 -78 83 -188 0 -268
l-43 -42 0 -349 0 -348 33 -27 c102 -80 87 -233 -28 -299 -33 -19 -43 -29 -30
-29 33 0 94 -48 116 -92 30 -59 23 -142 -15 -193 -33 -43 -95 -75 -146 -75
-44 0 -108 29 -139 63 l-23 26 -36 -35 c-56 -54 -127 -67 -197 -35 -128 58
-149 221 -40 308 19 15 35 32 35 36 0 5 -20 29 -45 53 l-46 44 -138 0 c-137 0
-139 0 -155 -25 -37 -56 -146 -82 -219 -51 -18 7 -45 27 -59 45 l-27 31 -285
0 -286 0 -36 -39 c-42 -48 -89 -65 -156 -59 -144 14 -210 195 -110 301 40 42
75 57 133 57 57 0 119 -29 144 -67 l15 -23 285 0 284 0 46 45 c25 25 45 52 45
60 0 7 -13 23 -29 34 -62 44 -88 148 -55 217 63 133 238 146 321 25 49 -73 35
-169 -36 -235 -17 -17 -31 -35 -31 -42 0 -7 20 -34 44 -59 l44 -45 135 0 c129
0 136 1 142 21 4 11 28 34 53 50 75 47 173 36 232 -26 l23 -24 38 32 39 32 0
350 0 350 -35 28 c-43 34 -64 73 -69 129 -5 56 -49 94 -90 78 -104 -39 -228
36 -243 148 -10 73 34 156 96 182 l30 12 -27 34 -27 34 -111 0 -110 0 -22 -30
c-58 -78 -189 -93 -257 -30 -21 19 -26 18 -505 -110 -267 -72 -492 -132 -501
-135 -8 -3 -23 -24 -33 -46 -26 -59 -93 -99 -163 -99 -64 0 -99 16 -141 64
l-31 36 -655 0 -655 0 -21 -27 c-103 -132 -314 -74 -328 90 -8 100 61 185 157
195 66 6 113 -12 155 -59 l36 -39 658 0 658 0 22 30 c58 78 189 93 257 30 21
-19 26 -18 519 113 l498 134 22 44 c12 24 37 54 54 66 l32 21 -27 6 c-126 27
-489 63 -758 76 -233 11 -302 11 -550 -1z m453 -928 c46 -23 67 -46 87 -94 31
-75 13 -150 -48 -204 -51 -45 -104 -59 -159 -44 -24 7 -50 13 -58 14 -8 1
-149 -74 -312 -168 l-296 -170 -6 -40 c-21 -127 -161 -195 -271 -130 -23 13
-50 36 -59 50 l-16 25 -1126 0 -1125 0 -27 -31 c-53 -64 -142 -85 -217 -50
-72 33 -105 86 -105 167 0 163 194 240 311 123 l39 -39 1121 0 1122 0 42 39
c40 36 95 61 137 61 10 0 35 -7 57 -16 l39 -16 301 174 c165 95 301 178 301
183 1 60 59 147 115 171 43 19 110 17 153 -5z m-3220 -983 c18 -11 40 -31 49
-44 l15 -24 1007 0 1007 0 30 31 c76 80 180 87 258 18 127 -111 49 -319 -119
-319 -55 0 -116 29 -147 70 l-22 30 -1003 0 -1004 0 -32 -36 c-54 -62 -129
-80 -204 -49 -50 21 -72 42 -94 90 -75 164 105 326 259 233z m4170 -217 c65
-34 112 -104 112 -168 -1 -43 -34 -106 -73 -139 l-35 -29 -8 -465 -9 -465 29
-25 c36 -30 66 -94 66 -140 0 -78 -66 -163 -136 -176 -95 -18 -179 22 -215
100 -36 79 -16 163 52 220 l32 27 7 277 c5 152 10 361 11 464 l4 187 -34 33
c-19 18 -40 47 -47 65 -63 149 102 307 244 234z m-1838 -236 c35 -18 66 -54
85 -97 46 -112 -29 -236 -150 -246 -71 -6 -118 12 -158 59 l-34 39 -1005 0
-1005 0 -12 -23 c-6 -12 -28 -33 -48 -47 -30 -20 -49 -25 -103 -25 -58 0 -71
4 -104 29 -108 82 -95 247 25 308 74 38 183 13 230 -53 l23 -32 1000 7 1000 7
42 39 c24 22 55 42 71 46 15 3 33 7 38 9 16 5 78 -7 105 -20z m-2770 -40 c57
-29 100 -101 100 -168 0 -44 1 -45 113 -142 l113 -99 61 3 c115 5 195 -70 195
-180 -1 -101 -79 -179 -180 -179 -59 0 -83 9 -125 49 -41 38 -57 73 -57 129
l0 49 -112 99 -112 99 -59 -3 c-69 -4 -135 23 -168 69 l-20 29 -468 0 -467 0
-23 -31 c-33 -44 -102 -72 -162 -67 -128 13 -200 149 -140 266 56 110 220 124
299 25 l27 -33 466 0 465 0 22 30 c54 73 151 96 232 55z m942 -292 c45 -26 80
-92 80 -152 0 -57 -19 -98 -66 -139 l-36 -31 0 -650 0 -650 29 -22 c47 -35 73
-91 70 -155 l-3 -55 78 -78 77 -77 62 0 c71 1 118 -24 157 -81 93 -135 -49
-325 -204 -273 -82 27 -129 92 -128 180 l0 55 -80 81 c-77 79 -82 82 -118 77
-74 -10 -150 32 -181 101 -36 79 -20 157 45 213 l36 32 0 654 0 653 -31 23
c-37 28 -68 93 -69 144 0 53 21 97 64 135 34 29 48 36 101 45 29 5 80 -8 117
-30z m1014 -64 c53 -32 77 -74 83 -144 l6 -62 114 -100 114 -100 43 10 c56 13
121 -11 163 -59 l30 -34 467 0 467 0 35 36 c98 101 239 77 304 -50 57 -112
-38 -257 -168 -256 -52 1 -117 31 -145 69 l-23 31 -467 0 -468 0 -20 -29 c-12
-16 -41 -39 -64 -50 -122 -59 -260 22 -264 155 l-1 53 -114 100 -113 100 -51
-6 c-107 -12 -194 60 -202 167 -7 91 41 164 125 190 40 13 110 3 149 -21z
m4748 -52 c44 -34 67 -76 75 -138 l6 -46 149 -111 c121 -90 152 -109 167 -102
26 14 94 12 132 -4 18 -7 47 -29 64 -49 95 -108 39 -271 -101 -298 -108 -21
-216 67 -216 176 0 33 -6 40 -152 149 -120 90 -156 112 -170 105 -9 -5 -39 -9
-65 -9 -177 0 -244 236 -94 332 41 26 53 29 107 26 48 -3 69 -10 98 -31z
m-6664 -92 c34 -18 77 -64 89 -98 24 -61 1 -158 -45 -199 -33 -29 -94 -49
-141 -47 -42 3 -46 1 -118 -71 -75 -74 -75 -75 -75 -129 0 -79 -33 -131 -106
-167 -53 -26 -58 -26 -111 -14 -44 9 -64 21 -98 56 l-43 44 -534 0 -535 0 -13
-26 c-21 -39 -89 -74 -143 -74 -82 0 -135 33 -168 105 -67 145 76 298 226 241
24 -10 58 -33 74 -52 l30 -34 536 0 536 0 26 30 c40 48 98 73 154 68 l48 -5
75 76 c69 70 76 80 70 107 -12 62 33 155 90 186 53 28 123 29 176 3z m1868
-340 c78 -33 115 -91 114 -176 l-1 -56 72 -71 72 -71 55 1 c63 1 101 -15 144
-61 l30 -31 537 0 537 0 39 39 c36 37 91 61 139 61 37 0 118 -49 143 -86 34
-49 40 -135 13 -184 -10 -19 -36 -48 -56 -64 -74 -60 -198 -43 -255 35 l-22
29 -535 0 -535 0 -32 -36 c-70 -80 -185 -87 -260 -16 -43 40 -57 75 -57 139
l0 59 -73 72 c-73 72 -74 73 -115 66 -55 -9 -137 30 -171 81 -98 146 55 337
217 270z m6261 -143 c87 -44 123 -145 83 -234 -11 -25 -34 -56 -51 -69 l-31
-23 0 -656 0 -656 29 -17 c57 -33 87 -142 60 -214 -15 -40 -67 -91 -106 -104
-18 -6 -53 -9 -78 -8 -45 3 -47 2 -126 -76 -74 -74 -80 -82 -74 -112 13 -72
-42 -170 -112 -199 -73 -31 -169 -4 -219 61 -39 51 -45 134 -15 193 32 62 90
97 163 98 l59 1 79 78 c77 77 79 80 73 117 -8 51 19 119 63 157 l34 30 0 652
0 651 -38 37 c-120 116 -43 309 123 311 29 0 65 -7 84 -18z m-9118 -583 c72
-24 119 -90 119 -166 l0 -48 217 -179 216 -180 77 0 c69 -1 80 -4 114 -30 140
-106 65 -326 -112 -326 -96 0 -175 80 -177 179 l0 44 -213 180 -214 179 -77 2
c-68 1 -82 4 -114 29 -51 38 -71 81 -71 148 -1 124 116 207 235 168z m9699
-199 c21 -11 47 -32 58 -47 27 -38 44 -106 36 -140 -10 -43 -45 -101 -71 -118
-23 -15 -23 -18 -23 -211 l0 -195 30 -26 c108 -90 77 -258 -55 -309 -153 -58
-295 101 -226 253 11 22 33 51 50 64 l31 23 0 191 0 191 -31 23 c-17 13 -40
44 -51 69 -38 86 -7 182 76 233 42 26 124 25 176 -1z m-5353 -27 c19 -9 47
-31 61 -50 l27 -33 378 0 377 0 36 39 c42 47 89 65 154 59 69 -7 114 -39 146
-103 21 -45 25 -63 20 -99 -9 -56 -53 -117 -101 -140 -78 -37 -185 -13 -229
52 l-18 27 -380 4 -380 3 -31 -37 c-38 -46 -81 -65 -149 -65 l-53 0 -141 -141
c-140 -139 -142 -142 -137 -179 14 -106 -72 -200 -184 -200 -54 0 -108 27
-143 73 l-21 27 -392 0 -392 0 -27 -33 c-76 -97 -232 -86 -294 19 -72 122 14
275 154 274 51 -1 115 -32 143 -69 l23 -31 392 0 393 0 21 30 c31 43 89 70
152 70 l53 0 141 141 c141 141 142 142 137 180 -7 46 17 117 50 147 56 53 146
68 214 35z m6121 -478 c75 -32 115 -90 115 -170 0 -59 -20 -102 -63 -138 l-31
-26 1 -502 0 -502 39 -43 c34 -36 61 -94 61 -129 0 -66 -58 -145 -125 -171
-188 -71 -334 175 -184 310 l39 36 0 499 0 500 -30 21 c-41 29 -70 89 -70 145
0 132 128 219 248 170z m-3190 -100 c75 -32 114 -90 116 -170 2 -166 -193
-247 -310 -129 -45 45 -75 63 -36 21 49 -52 64 -129 37 -194 -31 -74 -79 -105
-172 -113 l-63 -5 -240 -240 c-235 -234 -241 -241 -235 -273 7 -38 -9 -96 -37
-132 -74 -96 -227 -91 -295 9 -83 123 7 285 155 279 l53 -2 243 243 244 244
-5 38 c-7 48 0 76 31 122 l25 37 -513 0 -513 0 -47 -46 -46 -47 0 -89 c0 -88
0 -89 34 -118 105 -92 79 -262 -47 -309 -71 -27 -176 0 -211 55 -24 36 -52 36
-80 -1 -64 -84 -202 -91 -272 -13 -57 62 -68 133 -33 206 35 72 110 110 195
97 35 -5 56 -16 91 -51 26 -24 54 -44 62 -43 9 0 32 20 52 42 34 39 37 48 43
128 l7 85 -40 27 c-91 60 -109 198 -38 276 50 55 159 77 230 47 18 -7 46 -29
63 -48 l31 -35 645 5 646 5 13 24 c36 68 139 100 217 68z m540 -162 c117 -55
132 -240 26 -310 -24 -15 -24 -16 -24 -210 l0 -194 30 -26 c108 -90 77 -258
-55 -309 -154 -58 -297 103 -224 253 11 23 34 52 50 64 l29 20 0 190 0 190
-36 32 c-87 75 -87 199 0 275 20 17 49 34 64 38 15 3 32 7 37 9 16 6 67 -6
103 -22z m-3387 -429 c62 -31 106 -116 95 -183 l-6 -37 336 -342 336 -342 49
0 c64 0 107 -18 146 -64 l32 -36 1219 0 1219 0 12 23 c22 41 89 77 143 77 63
0 106 -19 145 -63 71 -81 50 -219 -40 -272 -78 -46 -166 -36 -228 26 l-38 38
-1214 7 -1215 7 -33 -38 c-122 -139 -338 -43 -317 141 4 35 -2 42 -330 377
l-335 342 -43 -3 c-61 -5 -107 13 -148 59 l-36 39 -533 0 -533 0 -47 -44 c-69
-67 -147 -74 -228 -21 -42 27 -79 96 -79 146 1 68 52 145 113 168 75 29 185
-3 217 -63 l13 -26 537 0 536 0 22 30 c55 73 151 96 233 54z m5078 -7 c46 -30
81 -96 81 -152 0 -50 -34 -119 -71 -146 l-29 -20 0 -643 0 -642 31 -23 c37
-27 69 -93 69 -141 0 -136 -156 -225 -273 -157 -51 30 -71 57 -86 115 -17 61
2 125 51 172 l38 38 0 639 0 639 -44 47 c-55 57 -68 113 -41 182 17 47 81 110
119 119 48 10 116 -1 155 -27z m-10876 -913 c66 -34 96 -77 106 -155 l6 -47
149 -110 c131 -98 151 -109 173 -101 127 48 267 -82 232 -216 -23 -85 -88
-135 -176 -135 -94 0 -172 73 -178 166 l-3 47 -151 114 c-137 103 -153 112
-176 103 -117 -45 -244 57 -233 187 10 122 145 201 251 147z m945 -785 c115
-56 134 -225 33 -300 l-31 -23 0 -256 0 -256 31 -23 c17 -13 40 -44 51 -69 69
-154 -95 -306 -249 -231 -44 21 -84 75 -97 131 -11 48 13 117 56 158 l38 38 0
251 0 251 -38 38 c-147 147 19 381 206 291z"/>
<path d="M6515 11680 c10 -11 20 -20 23 -20 3 0 -3 9 -13 20 -10 11 -20 20
-23 20 -3 0 3 -9 13 -20z"/>
<path d="M6370 11650 c-44 -44 -34 -108 21 -139 52 -29 119 13 119 74 0 72
-91 114 -140 65z"/>
<path d="M6551 11614 c0 -11 3 -14 6 -6 3 7 2 16 -1 19 -3 4 -6 -2 -5 -13z"/>
<path d="M2915 11148 c-75 -41 -50 -158 35 -158 82 0 112 118 39 155 -33 18
-47 18 -74 3z"/>
<path d="M5479 11131 c-69 -70 2 -171 96 -135 19 8 45 55 45 84 0 31 -53 80
-85 80 -16 0 -38 -12 -56 -29z"/>
<path d="M3164 10690 c-12 -5 -29 -19 -38 -32 -52 -74 38 -164 112 -112 54 37
46 115 -14 140 -18 8 -35 14 -36 13 -2 0 -13 -4 -24 -9z"/>
<path d="M5481 10674 c-61 -51 -26 -144 54 -144 79 0 112 84 56 141 -36 36
-70 37 -110 3z"/>
<path d="M5619 10513 c-13 -16 -12 -17 4 -4 16 13 21 21 13 21 -2 0 -10 -8
-17 -17z"/>
<path d="M7329 10441 c-17 -18 -29 -40 -29 -56 0 -16 12 -38 29 -56 18 -17 40
-29 56 -29 16 0 38 12 56 29 17 18 29 40 29 56 0 16 -12 38 -29 56 -18 17 -40
29 -56 29 -16 0 -38 -12 -56 -29z"/>
<path d="M7299 9181 c-18 -14 -24 -29 -24 -61 0 -32 6 -47 24 -61 54 -44 141
-6 141 61 0 67 -87 105 -141 61z"/>
<path d="M5504 10230 c-12 -5 -29 -19 -38 -32 -59 -84 56 -176 129 -103 62 61
-11 168 -91 135z"/>
<path d="M3135 10205 c-51 -50 -15 -135 58 -135 56 0 94 56 76 110 -20 55 -91
69 -134 25z"/>
<path d="M5624 10058 l-19 -23 23 19 c21 18 27 26 19 26 -2 0 -12 -10 -23 -22z"/>
<path d="M2730 10187 c-79 -40 -53 -157 35 -157 73 0 110 80 63 134 -28 31
-65 40 -98 23z"/>
<path d="M1452 10183 c-7 -3 -19 -18 -28 -35 -18 -34 -7 -81 23 -104 29 -22
81 -17 108 11 66 65 -13 164 -103 128z"/>
<path d="M3230 9773 c-81 -30 -79 -137 3 -166 10 -4 33 -1 51 7 70 29 69 123
0 152 -19 8 -35 14 -36 13 -2 0 -10 -3 -18 -6z"/>
<path d="M3631 9884 c-28 -36 -27 -79 4 -109 62 -62 162 2 134 85 -13 36 -36
50 -83 50 -25 0 -40 -7 -55 -26z"/>
<path d="M3661 8269 c-81 -32 -58 -159 29 -159 82 0 112 118 39 155 -32 17
-35 17 -68 4z"/>
<path d="M4036 7858 c-15 -13 -29 -37 -32 -55 -5 -27 -1 -37 24 -63 39 -38 83
-40 117 -5 41 40 33 105 -16 130 -39 21 -64 19 -93 -7z"/>
<path d="M4675 9838 c-52 -28 -62 -92 -20 -133 50 -51 135 -15 135 57 -1 37
-14 59 -47 76 -27 15 -42 15 -68 0z"/>
<path d="M5160 9417 c-77 -40 -53 -158 33 -157 74 1 112 81 65 134 -28 31 -65
40 -98 23z"/>
<path d="M6411 9404 c-24 -20 -31 -34 -31 -60 0 -77 94 -113 145 -58 34 37 33
78 -4 115 -36 36 -70 37 -110 3z"/>
<path d="M6592 9345 c0 -16 2 -22 5 -12 2 9 2 23 0 30 -3 6 -5 -1 -5 -18z"/>
<path d="M9399 9790 c-29 -17 -43 -66 -29 -100 15 -36 37 -50 80 -50 41 0 80
39 80 80 0 60 -77 101 -131 70z"/>
<path d="M9955 9355 c-47 -46 -25 -119 41 -139 30 -9 73 13 90 45 20 39 18 53
-12 88 -33 40 -83 43 -119 6z"/>
<path d="M2749 9671 c-32 -33 -36 -58 -14 -100 38 -75 155 -43 155 43 0 26 -7
40 -31 60 -40 34 -74 33 -110 -3z"/>
<path d="M955 9285 c-62 -61 3 -162 86 -133 58 20 70 100 21 138 -34 27 -77
25 -107 -5z"/>
<path d="M2364 9287 c-49 -42 -27 -128 35 -142 84 -18 139 85 75 143 -32 29
-76 28 -110 -1z"/>
<path d="M4655 9338 c-53 -31 -60 -85 -16 -129 33 -33 50 -35 91 -14 50 26 57
94 14 133 -27 24 -58 28 -89 10z"/>
<path d="M6429 8941 c-32 -33 -36 -58 -14 -100 24 -48 96 -58 133 -18 25 26
29 82 9 108 -35 46 -88 50 -128 10z"/>
<path d="M5022 8937 c-49 -52 -13 -137 57 -137 70 0 109 91 58 138 -32 30 -87
29 -115 -1z"/>
<path d="M10898 9201 c-18 -9 -36 -28 -41 -44 -28 -86 88 -150 143 -79 25 32
25 72 0 104 -25 33 -62 40 -102 19z"/>
<path d="M10905 7570 c-28 -11 -44 -31 -51 -67 -8 -42 35 -93 81 -93 47 0 85
33 85 75 0 47 -8 64 -41 80 -31 17 -45 18 -74 5z"/>
<path d="M10491 7154 c-84 -70 17 -191 103 -123 19 15 26 30 26 54 0 47 -8 64
-41 80 -39 21 -53 19 -88 -11z"/>
<path d="M1785 8595 c-32 -31 -32 -76 -2 -109 38 -43 106 -36 132 14 42 82
-65 161 -130 95z"/>
<path d="M2504 8040 c-85 -34 -61 -160 31 -160 79 0 112 84 56 141 -30 30 -50
34 -87 19z"/>
<path d="M11493 8432 c-30 -5 -63 -48 -63 -84 0 -65 89 -103 138 -58 62 58 11
156 -75 142z"/>
<path d="M11475 7708 c-31 -17 -45 -39 -45 -72 1 -35 15 -57 47 -74 33 -18 59
-14 89 12 73 62 -7 181 -91 134z"/>
<path d="M7245 8402 c-26 -5 -55 -31 -66 -59 -21 -56 41 -121 102 -108 32 7
69 48 69 77 0 54 -55 100 -105 90z"/>
<path d="M6105 8375 c-52 -51 -15 -135 60 -135 46 0 85 36 85 80 0 44 -39 80
-85 80 -25 0 -44 -8 -60 -25z"/>
<path d="M7349 8223 c-13 -16 -12 -17 4 -4 9 7 17 15 17 17 0 8 -8 3 -21 -13z"/>
<path d="M5614 7875 c-42 -17 -61 -64 -44 -105 23 -56 92 -69 135 -25 64 63
-8 165 -91 130z"/>
<path d="M4473 7858 c-29 -32 -34 -53 -22 -88 29 -82 159 -57 159 30 0 69 -92
107 -137 58z"/>
<path d="M12245 7895 c-52 -51 -16 -145 55 -145 40 0 90 47 90 85 0 16 -12 38
-29 56 -38 37 -82 39 -116 4z"/>
<path d="M12246 6559 c-19 -15 -26 -30 -26 -54 0 -47 8 -64 42 -81 38 -20 82
-10 108 23 27 35 25 65 -6 102 -31 38 -78 41 -118 10z"/>
<path d="M9205 7820 c10 -11 20 -20 23 -20 3 0 -3 9 -13 20 -10 11 -20 20 -23
20 -3 0 3 -9 13 -20z"/>
<path d="M9075 7808 c-32 -17 -45 -39 -45 -79 0 -29 6 -42 26 -58 29 -23 80
-27 105 -8 82 63 4 195 -86 145z"/>
<path d="M7415 7775 c-41 -40 -33 -105 17 -131 90 -46 186 67 115 134 -34 32
-100 30 -132 -3z"/>
<path d="M8784 7580 c-55 -22 -70 -95 -29 -135 51 -52 145 -16 145 54 0 57
-66 102 -116 81z"/>
<path d="M7066 7254 c-64 -65 4 -165 88 -130 60 25 68 103 14 140 -33 24 -72
20 -102 -10z"/>
<path d="M7430 7255 c-50 -53 -13 -135 61 -135 71 0 105 85 54 135 -33 34 -83
34 -115 0z"/>
<path d="M8035 6835 c-67 -66 20 -171 104 -125 31 16 46 65 31 100 -23 56 -92
69 -135 25z"/>
<path d="M9571 7634 c-58 -73 26 -169 108 -124 31 16 46 65 31 100 -15 37 -37
50 -84 50 -25 0 -40 -7 -55 -26z"/>
<path d="M9595 6938 c-31 -18 -44 -40 -44 -73 0 -34 14 -56 46 -73 33 -18 59
-14 89 12 73 63 -8 182 -91 134z"/>
<path d="M6214 7230 c-29 -11 -54 -49 -54 -78 0 -33 52 -82 87 -82 44 1 83 42
83 89 0 47 -70 90 -116 71z"/>
<path d="M4781 7204 c-28 -36 -27 -79 4 -109 51 -52 135 -17 135 56 0 26 -7
46 -20 59 -31 31 -93 27 -119 -6z"/>
<path d="M9884 6305 c-30 -12 -54 -50 -54 -84 0 -28 37 -69 69 -76 40 -9 86
17 100 55 24 70 -46 134 -115 105z"/>
<path d="M7092 6287 c-50 -53 -13 -137 59 -137 47 0 79 34 79 81 0 71 -90 107
-138 56z"/>
<path d="M10026 6297 c3 -10 9 -15 12 -12 3 3 0 11 -7 18 -10 9 -11 8 -5 -6z"/>
<path d="M11254 7216 c-56 -47 -20 -146 52 -146 34 0 84 51 84 85 0 34 -50 85
-84 85 -14 0 -37 -11 -52 -24z"/>
<path d="M11252 5600 c-30 -28 -36 -62 -18 -98 26 -50 90 -59 131 -17 73 72
-38 185 -113 115z"/>
<path d="M402 6287 c-49 -52 -13 -137 57 -137 68 0 104 78 60 134 -27 35 -86
36 -117 3z"/>
<path d="M965 5865 c-52 -51 -14 -139 60 -139 29 0 43 7 61 28 28 31 30 56 9
95 -25 49 -90 57 -130 16z"/>
<path d="M1335 5505 c-48 -47 -18 -128 52 -141 27 -5 37 -1 63 24 57 58 25
142 -55 142 -25 0 -44 -8 -60 -25z"/>
<path d="M1373 4693 c-13 -2 -32 -16 -43 -30 -36 -46 -23 -101 30 -128 37 -19
74 -11 100 22 50 64 -7 151 -87 136z"/>
<path d="M7616 12536 c16 -25 20 -26 108 -25 l91 1 -75 18 c-41 10 -90 21
-108 25 l-33 6 17 -25z"/>
<path d="M7430 12507 c-80 -41 -51 -157 39 -157 48 0 81 35 81 85 0 57 -69 99
-120 72z"/>
<path d="M7940 12460 c-23 -44 22 -110 76 -110 18 0 40 3 49 6 15 6 45 53 45
72 0 5 -28 17 -62 26 -35 10 -71 20 -80 22 -10 3 -21 -3 -28 -16z"/>
<path d="M8555 12270 c13 -14 30 -20 59 -19 l41 0 -45 19 c-61 26 -78 26 -55
0z"/>
<path d="M7905 12165 c-51 -50 -15 -135 58 -135 63 0 102 62 73 118 -26 50
-90 59 -131 17z"/>
<path d="M4445 12135 c-51 -50 -15 -135 58 -135 44 0 77 34 77 81 0 72 -84
106 -135 54z"/>
<path d="M6095 12135 c-50 -49 -17 -135 51 -135 47 0 70 14 83 50 28 83 -72
147 -134 85z"/>
<path d="M9040 12070 c14 -25 42 -40 76 -40 36 0 23 13 -39 39 -46 20 -47 20
-37 1z"/>
<path d="M8249 11947 c-21 -16 -39 -51 -39 -77 0 -33 53 -80 90 -80 37 0 90
47 90 80 0 51 -38 89 -90 89 -19 0 -42 -5 -51 -12z"/>
<path d="M8722 11937 c-30 -32 -29 -87 1 -115 35 -33 99 -30 127 5 27 34 22
89 -11 116 -31 25 -91 22 -117 -6z"/>
<path d="M4055 11940 c-67 -26 -68 -122 -3 -156 52 -27 118 14 118 72 0 46 -9
63 -41 79 -31 17 -45 18 -74 5z"/>
<path d="M3257 11885 c-82 -46 -85 -50 -57 -80 50 -53 140 -16 140 58 0 55
-17 59 -83 22z"/>
<path d="M9463 11828 c-30 -34 -34 -55 -19 -92 25 -60 103 -68 140 -14 29 42
21 64 -38 97 -29 17 -55 31 -58 31 -2 0 -14 -10 -25 -22z"/>
<path d="M4196 11793 c-6 -14 -5 -15 5 -6 7 7 10 15 7 18 -3 3 -9 -2 -12 -12z"/>
<path d="M9746 11595 c-56 -51 -19 -145 58 -145 80 0 118 89 61 145 -32 33
-83 33 -119 0z"/>
<path d="M9990 11510 c0 -33 -37 -97 -70 -122 l-30 -22 0 -351 0 -351 50 -52
c28 -29 50 -46 50 -39 0 23 67 84 106 97 20 7 56 10 79 8 43 -5 43 -5 141 93
l98 98 1 63 c1 71 28 124 77 153 16 9 28 20 28 25 0 5 -32 35 -72 68 -70 58
-73 59 -94 44 -17 -13 -23 -30 -26 -74 -12 -163 -207 -227 -315 -105 -77 88
-48 224 60 278 34 18 52 20 104 16 35 -4 63 -2 63 3 0 7 -196 159 -237 184 -9
5 -13 0 -13 -14z"/>
<path d="M7330 11262 c-38 -39 -40 -79 -4 -116 38 -38 84 -36 119 6 21 25 25
38 21 62 -8 40 -33 64 -73 72 -27 5 -37 1 -63 -24z"/>
<path d="M10092 11217 c-50 -53 -13 -137 60 -137 70 0 103 86 53 135 -32 33
-83 34 -113 2z"/>
<path d="M10549 11007 c-43 -33 -49 -84 -15 -123 47 -56 146 -20 146 52 0 57
-87 105 -131 71z"/>
<path d="M7954 10916 c-58 -25 -68 -110 -17 -143 84 -55 178 47 111 121 -30
32 -56 38 -94 22z"/>
<path d="M7325 10895 c-67 -66 20 -171 104 -125 31 16 46 65 31 100 -23 56
-92 69 -135 25z"/>
<path d="M8244 10897 c-32 -28 -36 -72 -11 -110 35 -53 124 -39 146 23 28 82
-68 144 -135 87z"/>
<path d="M8725 10895 c-51 -50 -15 -135 57 -135 68 0 105 59 74 118 -26 50
-91 58 -131 17z"/>
<path d="M6422 10887 c-69 -74 32 -179 112 -116 35 27 36 86 3 117 -32 30 -87
29 -115 -1z"/>
<path d="M8106 10703 c-20 -18 -36 -38 -36 -44 0 -6 18 -29 41 -51 l40 -39 21
27 c12 14 39 34 60 44 l39 17 -29 6 c-16 3 -45 21 -65 39 l-35 34 -36 -33z"/>
<path d="M9749 10551 c-17 -18 -29 -40 -29 -56 0 -38 50 -85 90 -85 61 0 104
83 67 131 -35 46 -88 50 -128 10z"/>
<path d="M10112 10573 c-7 -3 -19 -18 -28 -35 -30 -58 6 -118 71 -118 65 0
101 60 71 118 -8 16 -23 32 -31 36 -19 7 -64 7 -83 -1z"/>
<path d="M7929 10531 c-17 -18 -29 -40 -29 -56 0 -32 50 -85 80 -85 78 0 119
91 65 145 -34 35 -78 33 -116 -4z"/>
<path d="M8254 10536 c-57 -48 -22 -146 52 -146 78 0 115 90 59 145 -31 32
-75 32 -111 1z"/>
<path d="M10331 10344 c-24 -20 -31 -34 -31 -60 0 -77 94 -113 145 -58 34 37
33 78 -4 115 -36 36 -70 37 -110 3z"/>
<path d="M10512 10285 c0 -16 2 -22 5 -12 2 9 2 23 0 30 -3 6 -5 -1 -5 -18z"/>
<path d="M9774 10226 c-81 -35 -52 -156 36 -156 37 0 70 25 83 62 11 32 -14
79 -49 94 -39 16 -32 16 -70 0z"/>
<path d="M8711 10204 c-28 -36 -27 -79 4 -109 52 -53 135 -18 135 56 0 74 -95
109 -139 53z"/>
<path d="M11350 10226 c0 -2 8 -10 18 -17 15 -13 16 -12 3 4 -13 16 -21 21
-21 13z"/>
<path d="M11500 9483 l0 -548 30 -20 c16 -11 37 -34 47 -52 l17 -32 19 32 c11
18 29 41 42 52 l23 20 5 411 5 412 -30 22 c-34 25 -68 77 -68 104 0 17 -76
146 -86 146 -2 0 -4 -246 -4 -547z"/>
<path d="M7710 9913 c-63 -23 -82 -104 -34 -142 58 -46 134 -11 134 60 0 51
-57 97 -100 82z"/>
<path d="M8041 9904 c-80 -34 -52 -154 36 -154 70 0 106 78 63 132 -24 32 -59
39 -99 22z"/>
<path d="M8394 9910 c-55 -22 -70 -95 -29 -135 36 -37 86 -34 119 6 14 17 26
37 26 45 0 31 -30 72 -61 83 -18 6 -32 11 -33 10 -1 0 -11 -4 -22 -9z"/>
<path d="M8734 9906 c-34 -15 -58 -63 -47 -94 22 -63 94 -82 138 -37 65 64 -7
167 -91 131z"/>
<path d="M7896 9752 c-4 -11 -25 -37 -46 -56 l-40 -36 0 -188 0 -188 31 -23
c16 -12 38 -36 49 -53 17 -28 18 -29 25 -9 3 11 22 35 41 53 l34 32 0 193 0
192 -29 20 c-15 11 -35 35 -44 52 -13 29 -15 30 -21 11z"/>
<path d="M8575 9735 c-10 -19 -29 -42 -41 -50 -24 -15 -24 -17 -24 -211 l0
-196 26 -21 c14 -11 34 -33 44 -50 17 -27 18 -28 24 -9 4 12 22 34 41 51 l35
30 0 194 0 194 -26 24 c-15 13 -34 36 -43 51 l-17 27 -19 -34z"/>
<path d="M8232 9736 c-6 -14 -25 -35 -41 -47 l-31 -23 0 -190 0 -190 33 -30
c19 -17 39 -40 46 -51 10 -16 13 -17 18 -5 3 8 23 32 44 52 l39 37 0 189 0
188 -31 23 c-16 12 -35 33 -41 47 -6 13 -14 24 -18 24 -4 0 -12 -11 -18 -24z"/>
<path d="M6870 9590 c-33 -33 -30 -85 6 -117 75 -68 176 31 113 111 -26 33
-88 37 -119 6z"/>
<path d="M7675 9175 c-25 -24 -32 -65 -19 -100 10 -25 62 -47 95 -40 89 20 71
165 -21 165 -19 0 -40 -9 -55 -25z"/>
<path d="M8018 9170 c-25 -26 -29 -36 -24 -63 7 -39 48 -77 82 -77 15 0 38 12
55 29 37 38 38 79 3 115 -37 36 -77 34 -116 -4z"/>
<path d="M8366 9175 c-60 -56 -7 -158 74 -140 35 8 58 33 66 73 5 26 1 36 -24
62 -38 38 -79 40 -116 5z"/>
<path d="M8722 9184 c-35 -24 -44 -59 -27 -100 34 -83 155 -59 155 31 0 69
-73 108 -128 69z"/>
<path d="M7900 9043 c0 -22 -54 -76 -95 -94 l-40 -19 140 1 c77 1 131 4 120 6
-31 8 -84 52 -106 87 -10 17 -19 26 -19 19z"/>
<path d="M8590 9043 c0 -22 -54 -76 -95 -94 l-40 -19 145 1 c134 0 142 1 107
13 -45 16 -73 39 -98 81 -11 17 -19 25 -19 18z"/>
<path d="M8240 9032 c0 -17 -75 -83 -104 -91 -22 -6 13 -9 114 -9 90 0 135 3
118 8 -39 12 -81 44 -98 74 -13 25 -30 35 -30 18z"/>
<path d="M10326 9004 c-54 -55 -18 -144 58 -144 26 0 40 7 60 31 34 40 33 74
-3 110 -38 37 -79 38 -115 3z"/>
<path d="M10512 8945 c0 -16 2 -22 5 -12 2 9 2 23 0 30 -3 6 -5 -1 -5 -18z"/>
<path d="M6879 8920 c-29 -17 -43 -66 -29 -100 15 -36 37 -50 78 -50 48 0 77
30 77 80 0 32 -6 47 -24 61 -25 20 -75 25 -102 9z"/>
<path d="M8925 8905 c-29 -28 -32 -70 -9 -103 56 -80 181 -11 144 78 -23 56
-92 69 -135 25z"/>
<path d="M11365 8825 c-51 -50 -15 -135 58 -135 44 0 77 34 77 81 0 72 -84
106 -135 54z"/>
<path d="M11710 8830 c-44 -44 -29 -118 30 -138 83 -29 150 77 87 136 -30 29
-89 30 -117 2z"/>
<path d="M1175 8365 c-34 -33 -34 -87 0 -120 51 -52 139 -14 139 60 0 74 -88
112 -139 60z"/>
<path d="M10615 8080 c10 -11 20 -20 23 -20 3 0 -3 9 -13 20 -10 11 -20 20
-23 20 -3 0 3 -9 13 -20z"/>
<path d="M9453 8072 c-30 -5 -63 -48 -63 -84 0 -41 40 -78 85 -78 72 0 109 77
65 132 -20 26 -48 36 -87 30z"/>
<path d="M10461 8044 c-30 -39 -27 -80 9 -116 26 -25 36 -29 63 -24 68 13 98
87 56 140 -16 21 -29 26 -64 26 -35 0 -48 -5 -64 -26z"/>
<path d="M10652 7990 c0 -19 2 -27 5 -17 2 9 2 25 0 35 -3 9 -5 1 -5 -18z"/>
<path d="M1786 7905 c-54 -50 -17 -145 56 -145 38 0 88 48 88 85 0 37 -50 85
-88 85 -17 0 -40 -10 -56 -25z"/>
<path d="M10599 7883 c-13 -16 -12 -17 4 -4 9 7 17 15 17 17 0 8 -8 3 -21 -13z"/>
<path d="M180 7841 c0 -10 -3 -27 -7 -37 -4 -11 -3 -15 4 -11 14 9 23 56 12
63 -5 3 -9 -4 -9 -15z"/>
<path d="M2471 7324 c-42 -53 -12 -127 56 -140 27 -5 37 -1 63 24 36 36 39 77
9 116 -16 21 -29 26 -64 26 -35 0 -48 -5 -64 -26z"/>
<path d="M1102 7287 c-30 -32 -29 -87 1 -115 50 -47 137 -10 137 58 0 69 -91
107 -138 57z"/>
<path d="M2662 7260 c0 -19 2 -27 5 -17 2 9 2 25 0 35 -3 9 -5 1 -5 -18z"/>
<path d="M3314 7230 c-46 -18 -69 -85 -41 -121 32 -42 84 -50 121 -16 43 38
36 106 -14 132 -33 17 -36 17 -66 5z"/>
<path d="M5865 6772 c-63 -13 -86 -92 -40 -137 50 -51 135 -17 135 53 0 20 -6
45 -14 54 -16 21 -55 36 -81 30z"/>
<path d="M3281 6744 c-63 -80 38 -179 113 -111 24 21 30 39 27 80 -4 57 -102
79 -140 31z"/>
<path d="M4092 6747 c-47 -50 -10 -137 58 -137 69 0 107 91 57 138 -32 30 -87
29 -115 -1z"/>
<path d="M1108 6600 c-14 -11 -28 -31 -30 -44 -17 -87 95 -137 146 -64 54 77
-42 167 -116 108z"/>
<path d="M11849 6351 c-18 -14 -24 -29 -24 -61 0 -51 30 -80 80 -80 50 0 80
29 80 80 0 51 -30 80 -80 80 -18 0 -43 -9 -56 -19z"/>
<path d="M3285 6285 c-16 -15 -25 -36 -25 -55 0 -71 91 -107 140 -55 72 77
-41 185 -115 110z"/>
<path d="M4091 6284 c-46 -58 -11 -134 60 -134 70 0 103 77 58 134 -16 20 -29
26 -59 26 -30 0 -43 -6 -59 -26z"/>
<path d="M5822 6287 c-48 -51 -10 -137 61 -137 69 0 105 90 54 138 -32 30 -87
29 -115 -1z"/>
<path d="M6057 6208 c-2 -24 -8 -50 -11 -58 -4 -10 31 -75 93 -174 117 -186
121 -191 121 -148 0 17 5 42 11 54 9 21 -2 43 -96 193 -59 94 -108 171 -110
173 -1 1 -5 -17 -8 -40z"/>
<path d="M12280 5973 c-8 -3 -25 -15 -37 -26 -49 -44 -14 -137 52 -137 47 0
64 8 81 42 22 42 10 85 -29 109 -33 20 -42 21 -67 12z"/>
<path d="M6382 5870 c-30 -28 -36 -62 -18 -98 26 -50 90 -59 131 -17 73 72
-38 185 -113 115z"/>
<path d="M4095 5825 c-34 -33 -34 -83 0 -115 77 -72 185 41 110 115 -15 16
-36 25 -55 25 -19 0 -40 -9 -55 -25z"/>
<path d="M5825 5825 c-33 -32 -34 -83 -1 -114 53 -50 136 -14 136 59 0 73 -84
107 -135 55z"/>
<path d="M10435 5825 c-52 -51 -14 -139 60 -139 29 0 43 7 61 28 49 56 13 136
-61 136 -25 0 -44 -8 -60 -25z"/>
<path d="M6060 5752 c0 -17 -5 -42 -11 -55 -9 -20 1 -42 93 -190 57 -91 106
-166 109 -166 4 -1 9 16 11 37 3 20 8 44 11 52 5 10 -29 73 -93 175 -55 88
-105 164 -110 169 -7 7 -10 -1 -10 -22z"/>
<path d="M6573 5692 c-12 -16 -38 -37 -57 -46 -38 -18 -117 -21 -147 -6 -26
14 -24 9 16 -55 28 -43 41 -55 61 -55 40 0 94 -27 130 -67 l34 -37 813 -8
c446 -4 1282 -12 1857 -18 l1044 -11 33 36 c84 92 224 84 290 -16 23 -36 28
-53 28 -108 l0 -65 705 -770 c388 -423 710 -771 715 -773 9 -3 65 109 65 130
0 4 -363 404 -807 888 -733 800 -809 880 -832 876 -49 -10 -112 14 -157 59
l-43 42 -293 1 c-161 1 -662 6 -1113 11 -451 5 -1157 12 -1570 15 l-750 6 -22
-29z"/>
<path d="M6383 5408 c-44 -48 -37 -105 16 -133 83 -42 162 65 96 130 -32 33
-84 34 -112 3z"/>
<path d="M10452 5383 c-17 -6 -42 -57 -42 -83 0 -31 53 -80 85 -80 38 0 85 50
85 90 0 58 -68 97 -128 73z"/>
<path d="M6573 5232 c-12 -16 -38 -37 -57 -46 -38 -18 -117 -21 -147 -6 -26
15 -24 7 14 -53 31 -47 38 -53 88 -64 42 -10 63 -22 96 -56 l41 -44 794 -7
c436 -3 1273 -11 1860 -17 l1066 -11 37 40 c20 23 52 46 72 53 123 40 253 -63
241 -193 l-5 -51 634 -693 c350 -382 638 -694 642 -694 4 0 21 30 39 66 l33
66 -103 111 c-57 62 -388 423 -737 804 -588 642 -635 692 -660 687 -47 -10
-112 15 -156 58 l-40 41 -700 8 c-385 4 -932 10 -1215 13 -283 3 -807 8 -1165
12 l-650 5 -22 -29z"/>
<path d="M1882 5227 c-69 -74 32 -179 112 -116 35 27 36 86 3 117 -32 30 -87
29 -115 -1z"/>
<path d="M4270 4993 c-61 -22 -79 -95 -35 -138 50 -51 135 -15 135 58 0 49
-57 95 -100 80z"/>
<path d="M5780 4987 c-31 -16 -54 -61 -46 -92 9 -37 45 -65 83 -65 85 0 116
117 42 155 -34 18 -47 18 -79 2z"/>
<path d="M6384 4946 c-54 -46 -30 -127 43 -142 27 -5 37 -1 63 24 38 39 40 79
4 116 -33 33 -74 34 -110 2z"/>
<path d="M10436 4899 c-14 -17 -26 -42 -26 -56 0 -33 51 -83 85 -83 37 0 85
50 85 88 0 41 -43 82 -85 82 -25 0 -40 -8 -59 -31z"/>
<path d="M12265 4858 c-52 -28 -62 -92 -20 -133 31 -32 75 -32 111 -1 73 62
-7 181 -91 134z"/>
<path d="M3045 4445 c-51 -50 -15 -135 58 -135 73 0 106 82 54 138 -28 31 -80
30 -112 -3z"/>
<path d="M5779 4295 c-38 -21 -55 -67 -39 -105 35 -84 160 -60 160 31 0 62
-68 103 -121 74z"/>
<path d="M4232 4277 c-50 -53 -13 -137 59 -137 47 0 79 34 79 81 0 71 -90 107
-138 56z"/>
<path d="M1331 3984 c-84 -70 17 -191 103 -123 19 15 26 30 26 54 0 47 -8 64
-41 80 -39 21 -53 19 -88 -11z"/>
<path d="M6387 3990 c-33 -26 -43 -70 -23 -108 39 -76 156 -45 156 42 0 26 -7
40 -31 60 -37 31 -67 33 -102 6z"/>
<path d="M10496 3988 c-40 -35 -43 -78 -11 -116 53 -64 145 -31 145 52 0 74
-79 112 -134 64z"/>
<path d="M2174 3830 c-29 -11 -54 -49 -54 -78 0 -32 52 -82 85 -82 16 0 38 12
57 30 25 26 29 36 24 63 -11 55 -64 87 -112 67z"/>
<path d="M4279 3611 c-38 -39 -38 -74 1 -113 26 -25 36 -29 63 -24 73 15 97
96 43 142 -37 32 -71 30 -107 -5z"/>
<path d="M5760 3615 c-17 -18 -24 -36 -23 -61 3 -110 162 -106 163 4 0 73 -90
110 -140 57z"/>
<path d="M3100 3506 c0 -2 8 -10 18 -17 15 -13 16 -12 3 4 -13 16 -21 21 -21
13z"/>
<path d="M1865 3478 c-32 -17 -45 -39 -45 -75 0 -71 81 -108 134 -60 43 38 36
106 -14 132 -34 18 -48 18 -75 3z"/>
<path d="M2966 3468 c-40 -35 -43 -78 -11 -116 65 -78 186 -1 140 88 -27 52
-87 65 -129 28z"/>
<path d="M3141 3364 c0 -11 3 -14 6 -6 3 7 2 16 -1 19 -3 4 -6 -2 -5 -13z"/>
<path d="M10515 3310 c-67 -26 -68 -122 -3 -156 52 -27 118 14 118 72 0 46 -9
63 -41 79 -31 17 -45 18 -74 5z"/>
<path d="M6383 3295 c-46 -33 -37 -112 16 -140 38 -19 75 -11 101 22 43 55 9
133 -59 133 -20 0 -46 -7 -58 -15z"/>
<path d="M2719 3121 c-17 -18 -29 -40 -29 -56 0 -29 48 -85 74 -85 32 0 66 21
81 51 14 26 15 36 4 60 -26 63 -83 76 -130 30z"/>
<path d="M5760 3125 c-47 -50 -22 -127 46 -141 44 -9 94 35 94 82 0 75 -90
112 -140 59z"/>
<path d="M5998 3084 c2 -19 -1 -54 -8 -78 l-11 -42 137 -220 c75 -120 138
-220 139 -221 1 -2 2 17 2 41 0 24 5 57 12 73 12 29 7 38 -125 249 -75 120
-140 222 -143 226 -4 5 -5 -8 -3 -28z"/>
<path d="M1560 3060 c-43 -43 -32 -112 23 -138 57 -28 117 12 117 76 0 27 -7
45 -23 60 -30 29 -89 30 -117 2z"/>
<path d="M6375 2618 c-32 -38 -29 -81 11 -115 33 -30 65 -29 103 3 61 51 26
144 -53 144 -26 0 -40 -7 -61 -32z"/>
<path d="M10499 2637 c-66 -51 -30 -157 53 -157 69 0 106 100 55 148 -26 25
-82 29 -108 9z"/>
<path d="M6575 2453 c-14 -18 -40 -40 -58 -49 -42 -22 -128 -22 -162 0 -15 10
-28 16 -30 14 -2 -2 18 -38 45 -79 45 -71 51 -77 91 -83 51 -8 101 -37 123
-71 l16 -25 1891 0 1890 0 29 34 c80 90 213 86 286 -10 26 -33 29 -46 29 -110
l1 -72 57 -63 56 -64 57 56 57 57 -179 202 c-154 174 -181 200 -201 195 -42
-10 -114 16 -155 57 l-38 38 -1889 2 -1890 3 -26 -32z"/>
<path d="M2744 2450 c-12 -5 -29 -19 -38 -32 -52 -74 38 -164 112 -112 54 37
46 115 -14 140 -18 8 -35 14 -36 13 -2 0 -13 -4 -24 -9z"/>
<path d="M5765 2437 c-39 -33 -39 -91 0 -124 30 -27 55 -29 94 -8 70 36 50
139 -30 151 -28 5 -41 1 -64 -19z"/>
<path d="M6378 2130 c-25 -26 -29 -36 -24 -63 7 -38 48 -77 81 -77 13 0 37 12
54 26 40 33 43 83 6 119 -34 35 -78 33 -117 -5z"/>
<path d="M10485 2128 c-29 -35 -29 -76 1 -109 35 -38 121 -28 138 16 24 64
-13 125 -76 125 -28 0 -42 -7 -63 -32z"/>
<path d="M5780 1757 c-76 -38 -48 -157 37 -157 88 0 115 117 36 158 -27 15
-42 15 -73 -1z"/>
<path d="M2715 1735 c-51 -50 -15 -135 58 -135 54 0 95 57 76 107 -22 57 -91
72 -134 28z"/>
<path d="M4342 1737 c-30 -32 -29 -87 1 -115 27 -25 101 -30 129 -8 28 21 39
61 27 96 -14 38 -36 50 -92 50 -33 0 -49 -6 -65 -23z"/>
<path d="M4561 1569 c-33 -43 -63 -59 -118 -67 l-47 -7 -233 -345 c-166 -244
-231 -349 -226 -360 4 -8 8 -42 8 -76 0 -76 -29 -124 -96 -157 l-46 -23 136
-56 c557 -230 1169 -382 1780 -443 1072 -106 2169 66 3150 493 l176 77 -1220
3 -1220 2 -30 -35 c-87 -101 -239 -81 -302 40 -19 35 -21 122 -4 154 11 20 -7
53 -209 375 l-221 354 -50 6 c-40 6 -58 15 -96 51 l-47 45 -530 -1 -531 0 -24
-30z"/>
<path d="M6386 1448 c-15 -13 -29 -37 -32 -55 -5 -27 -1 -37 24 -63 39 -38 79
-40 116 -4 75 75 -29 191 -108 122z"/>
<path d="M3100 1256 c0 -2 8 -10 18 -17 15 -13 16 -12 3 4 -13 16 -21 21 -21
13z"/>
<path d="M2966 1218 c-40 -35 -43 -78 -11 -116 65 -77 186 -1 140 87 -28 55
-85 67 -129 29z"/>
<path d="M2831 1067 c2 -1 12 -9 22 -16 15 -12 17 -12 11 3 -3 9 -13 16 -22
16 -8 0 -13 -1 -11 -3z"/>
<path d="M3715 775 c-62 -62 2 -162 85 -134 82 29 57 159 -30 159 -19 0 -40
-9 -55 -25z"/>
<path d="M6400 767 c-14 -7 -31 -25 -38 -41 -40 -82 68 -156 133 -91 64 63
-16 173 -95 132z"/>
</g>
</svg>
